<svg xmlns="http://www.w3.org/2000/svg" viewBox="0 0 977.2 18.2">
    <path class="squiggle" fill="none" stroke="currentColor" stroke-dashoffset="1" stroke-miterlimit="10" stroke-linecap="round" stroke-width="4" d="M.8 5.6a13.6 13.6 0 0 1 20.3 0l6.2 7a13.6 13.6 0 0 0 20.3 0l6.2-7a13.6 13.6 0 0 1 20.4 0l6.2 7a13.6 13.6 0 0 0 20.3 0l6.2-7a13.6 13.6 0 0 1 20.4 0l6.1 7a13.6 13.6 0 0 0 20.4 0l6.2-7a13.6 13.6 0 0 1 20.3 0l6.2 7a13.6 13.6 0 0 0 20.4 0l6.1-7a13.6 13.6 0 0 1 20.4 0l6.2 7a13.6 13.6 0 0 0 20.3 0l6.2-7a13.6 13.6 0 0 1 20.4 0l6.2 7a13.6 13.6 0 0 0 20.3 0l6.2-7a13.6 13.6 0 0 1 20.3 0l6.2 7a13.6 13.6 0 0 0 20.4 0l6.2-7a13.6 13.6 0 0 1 20.3 0l6.2 7a13.6 13.6 0 0 0 20.3 0l6.2-7a13.6 13.6 0 0 1 20.4 0l6.2 7a13.6 13.6 0 0 0 20.3 0l6.2-7a13.6 13.6 0 0 1 20.4 0l6.2 7a13.6 13.6 0 0 0 20.3 0l6.2-7a13.6 13.6 0 0 1 20.3 0l6.2 7a13.6 13.6 0 0 0 20.4 0l6.2-7a13.6 13.6 0 0 1 20.3 0l6.2 7a13.6 13.6 0 0 0 20.4 0l6.2-7a13.6 13.6 0 0 1 20.3 0l6.2 7a13.6 13.6 0 0 0 20.3 0l6.2-7a13.6 13.6 0 0 1 20.4 0l6.2 7a13.6 13.6 0 0 0 20.3 0l6.2-7a13.6 13.6 0 0 1 20.4 0l6.1 7a13.6 13.6 0 0 0 20.4 0l6.2-7a13.6 13.6 0 0 1 20.3 0l6.2 7a13.6 13.6 0 0 0 20.4 0l6.2-7a13.6 13.6 0 0 1 20.3 0l6.2 7a13.6 13.6 0 0 0 20.3 0l6.2-7a13.6 13.6 0 0 1 20.4 0l6.2 7a13.6 13.6 0 0 0 20.3 0l6.2-7a13.6 13.6 0 0 1 20.4 0" />
  </svg>